<svg xmlns="http://www.w3.org/2000/svg" fill="none" width="90" height="59" viewBox="0 0 90 59"><path d="M88.629 34.593l-9.983-9.838a9.072 9.072 0 00-1.848-1.392 7.31 7.31 0 00.968-10.403c-2.65-3.137-7.379-3.564-10.563-.954a7.31 7.31 0 00-.968 10.403c.36.426.766.81 1.213 1.146a8.864 8.864 0 00-1.488 1.173l-2.728 2.55a2.426 2.426 0 01-3.384-.066l-9.987-9.839a8.905 8.905 0 00-1.391-1.115c4.145-2.702 5.281-8.202 2.538-12.285-2.744-4.083-8.328-5.202-12.473-2.5-4.145 2.702-5.282 8.203-2.538 12.285a8.93 8.93 0 002.538 2.5c-.5.326-.965.7-1.39 1.117l-7.642 7.535-6.734-4.764a8.97 8.97 0 00-1.253-.979c.61-.41 1.167-.89 1.66-1.432h3.82c.829 0 1.5-.66 1.5-1.476.001-.23-.053-.456-.157-.662l-3.34-6.579a8.594 8.594 0 00-1.153-2.29 1.442 1.442 0 00-.332-.42C20.46 2.495 14.844 1.842 10.97 4.85a8.857 8.857 0 00-1.597 1.607c-.06.065-.113.133-.162.206a8.774 8.774 0 00-1.2 2.346l-3.345 6.587a1.467 1.467 0 00.666 1.983c.206.102.433.155.663.157h3.832a9 9 0 001.65 1.419 8.93 8.93 0 00-1.34 1.08l-8.766 8.73a4.562 4.562 0 000 6.521 4.72 4.72 0 003.311 1.35 4.767 4.767 0 003.035-1.1L4.544 48.293a1.476 1.476 0 001.08 1.8c.12.03.245.046.37.046h3v4.432c0 2.441 2.008 4.422 4.486 4.423a4.527 4.527 0 003.015-1.143c1.838 1.639 4.676 1.5 6.34-.31a4.383 4.383 0 001.16-2.97V50.14h3.001c.829 0 1.5-.66 1.501-1.477 0-.12-.015-.24-.044-.358l-3.701-14.661 2.07 1.053c.892.46 1.887.69 2.894.665.096.006.193.004.29-.007.065 0 .134.01.172.01a4.752 4.752 0 003.312-1.352l2.507-2.468V54.57c-.008 2.439 1.994 4.422 4.47 4.429a4.524 4.524 0 003.03-1.149c1.838 1.639 4.676 1.5 6.34-.31a4.383 4.383 0 001.16-2.97V31.544l4.8 4.727c2.257 2.292 5.703 3 8.701 1.788v16.512c-.007 2.439 1.995 4.422 4.471 4.429a4.524 4.524 0 003.03-1.149c1.838 1.639 4.676 1.5 6.34-.31a4.383 4.383 0 001.16-2.97V38.788l2.507 2.327a4.734 4.734 0 006.623-.002A4.578 4.578 0 0090 37.853a4.546 4.546 0 00-1.371-3.26zm-16.63-21.29c2.485 0 4.5 1.984 4.5 4.432 0 2.448-2.015 4.433-4.5 4.433-2.486 0-4.5-1.985-4.5-4.433 0-2.448 2.014-4.432 4.5-4.432zM37.497 8.871c0-3.264 2.686-5.91 6-5.91s6 2.646 6 5.91c0 3.263-2.686 5.91-6 5.91s-6-2.647-6-5.91zM10.53 14.78h-2.1l2.304-4.545c.034-.067.063-.136.087-.207a5.881 5.881 0 01.828-1.647c.027-.031.056-.064.081-.098 1.95-2.595 5.666-3.142 8.3-1.221.473.344.891.756 1.24 1.221.025.033.052.064.079.095.363.503.644 1.06.83 1.65.025.07.054.14.088.207l2.307 4.544h-2.1c-.472 0-.917.22-1.2.591a5.953 5.953 0 01-4.33 2.313 8.65 8.65 0 00-.918 0 5.955 5.955 0 01-4.296-2.313 1.508 1.508 0 00-1.2-.59zm75.98 24.244c-.316.31-.743.484-1.188.485-.46-.004-.9-.19-1.222-.514l-5.067-4.713c-.6-.563-1.55-.541-2.12.05a1.467 1.467 0 00-.415 1.031v19.207c0 .816-.672 1.478-1.5 1.478-.829 0-1.5-.662-1.5-1.478V43.517c0-.816-.672-1.478-1.5-1.478-.829 0-1.5.662-1.5 1.478V54.57c0 .816-.672 1.478-1.5 1.478-.829 0-1.5-.662-1.5-1.478V35.364c0-.816-.671-1.477-1.5-1.478-.383 0-.751.144-1.03.403-1.94 1.886-5.064 1.867-6.98-.043a5.371 5.371 0 01-.07-.073l-7.35-7.24a1.516 1.516 0 00-2.122-.02c-.29.28-.452.664-.45 1.064v26.594c0 .816-.672 1.478-1.5 1.478s-1.5-.662-1.5-1.478v-17.73c0-.815-.672-1.477-1.5-1.477s-1.5.662-1.5 1.478v17.73c0 .815-.672 1.477-1.5 1.477-.829 0-1.5-.662-1.5-1.478V27.977c0-.816-.672-1.477-1.5-1.477-.399 0-.78.156-1.061.433l-5.063 4.986c-.29.288-.675.462-1.086.489-.039 0-.15-.018-.195-.02-.045-.004-.078 0-.115 0a1.415 1.415 0 00-.21 0 .515.515 0 00-.15.021c-.49 0-.972-.116-1.408-.337l-5.014-2.554a1.511 1.511 0 00-2.022.633 1.457 1.457 0 00-.123 1.035l4.038 15.998h-2.592c-.829 0-1.5.661-1.5 1.477v5.91c0 .816-.672 1.478-1.5 1.478-.829 0-1.5-.662-1.5-1.478v-5.91c0-.816-.672-1.477-1.5-1.477-.829 0-1.5.661-1.5 1.477v5.91c0 .816-.672 1.478-1.5 1.478-.83 0-1.5-.662-1.5-1.478v-5.91c0-.816-.673-1.477-1.501-1.477H7.919l4.039-16.004a1.476 1.476 0 00-1.096-1.79 1.516 1.516 0 00-1.437.406l-3.553 3.6a1.7 1.7 0 01-2.378.013 1.643 1.643 0 01-.001-2.36l8.772-8.734a5.976 5.976 0 013.564-1.662c.224.016.45.036.673.036.222 0 .45-.02.672-.036a5.976 5.976 0 013.564 1.662c.057.057.12.11.186.157l7.863 5.561a1.517 1.517 0 001.936-.157l8.55-8.421c2.342-2.3 6.13-2.3 8.472 0l10.003 9.87c2.066 2.057 5.428 2.1 7.547.095l2.754-2.575c2.37-2.23 6.102-2.23 8.473 0l9.987 9.837a1.639 1.639 0 01.001 2.343z" fill="#fff"/></svg>
