<svg xmlns="http://www.w3.org/2000/svg" fill="none" width="76" height="57" viewBox="0 0 76 57"><path fill-rule="evenodd" clip-rule="evenodd" d="M50.086 24.962L39.173 14.05a1.074 1.074 0 00-1.517 0l-7.829 7.823-7.169-7.17A9.67 9.67 0 0030.9 5.152v-.184a3.218 3.218 0 00-6.437 0A3.407 3.407 0 0121.06 8.37a16.171 16.171 0 00-5.523.984 6.437 6.437 0 10-6.517 4.36l-.328.336c-4.567 4.567-4.567 11.971 0 16.538l.406.406a3.348 3.348 0 005.709-2.37 3.327 3.327 0 00-.98-2.367l-.407-.407a5.006 5.006 0 01-.677-6.222l14.921 14.915h-8.566a1.073 1.073 0 100 2.145h10.708l1.094 1.094v3.347a7.996 7.996 0 00-3.747 8.434h-2.69a1.073 1.073 0 000 2.146h3.447A8.034 8.034 0 0029.708 54H2.073a1.073 1.073 0 000 2.146H74.3a1.073 1.073 0 000-2.146H40.291A7.98 7.98 0 0043 48a7.992 7.992 0 00-3.517-6.627v-7.26c0-.284-.113-.557-.314-.758l-4.606-4.606 3.847-3.841 5.868 5.862a4.107 4.107 0 005.808-5.808zM37.337 40.347v-5.783l-5.042-5.05a1.073 1.073 0 010-1.516l5.36-5.365a1.073 1.073 0 011.518 0l6.622 6.615c.368.366.867.572 1.387.574a1.964 1.964 0 001.383-3.343L38.41 16.325l-7.824 7.824a1.073 1.073 0 01-1.517 0l-8.583-8.583a1.073 1.073 0 01-.315-.76v-1.072c0-.592.48-1.073 1.073-1.073a7.519 7.519 0 007.51-7.51v-.184a1.073 1.073 0 00-2.146 0 5.554 5.554 0 01-5.548 5.543 13.932 13.932 0 00-9.916 4.108l-.943.942c-3.729 3.73-3.729 9.775 0 13.503l.407.407a1.203 1.203 0 101.702-1.702l-.407-.407a7.148 7.148 0 010-10.1 1.073 1.073 0 011.517 0L32.73 36.574c.202.202.315.474.315.759v2.908A8.003 8.003 0 0135 40c.813 0 1.598.121 2.337.347zM5.151 7.297a4.292 4.292 0 118.583 0 4.292 4.292 0 01-8.583 0zm66.723-4.723l-.048.001-.045.003c-.044.004-.088.01-.132.02h.008a9.192 9.192 0 01-6.578-1.146l-.494-.299a1.077 1.077 0 00-.095-.041 1.117 1.117 0 00-.972 0 1.116 1.116 0 00-.096.041l-.494.299a9.19 9.19 0 01-6.579 1.145 1.124 1.124 0 00-1.35 1.102v11.33c0 1.595.431 3.161 1.249 4.532a8.736 8.736 0 004.068 3.569l3.237 1.395c.283.121.603.121.885 0l3.239-1.395a8.735 8.735 0 004.068-3.569 8.85 8.85 0 001.254-4.533V3.7c0-.62-.503-1.125-1.125-1.125zM62.88 21.78l-1.669-.718a6.498 6.498 0 01-3.026-2.654 6.601 6.601 0 01-.93-3.375V4.993a11.405 11.405 0 005.625-.987V21.78zm6.944-3.372a6.494 6.494 0 01-3.026 2.655l-1.673.719V4.006a11.41 11.41 0 005.625.986l.005 10.04a6.601 6.601 0 01-.93 3.376zM14.808 34.543h-2.146a1.073 1.073 0 000 2.145h2.145a1.073 1.073 0 100-2.145zm5.187 15.02h-2.146a1.073 1.073 0 000 2.145h2.146a1.073 1.073 0 100-2.145zM40.8 48a5.8 5.8 0 11-11.6 0 5.8 5.8 0 0111.6 0zM35 49.8a1.8 1.8 0 100-3.6 1.8 1.8 0 000 3.6zm0 2.2a4 4 0 100-8 4 4 0 000 8z" fill="#fff" stroke="#fff" stroke-width=".4"/></svg>
